<?xml version="1.0" encoding="UTF-8" standalone="no"?>
<!-- Created with Inkscape (http://www.inkscape.org/) -->

<svg
   version="1.1"
   id="svg2"
   width="1122.52"
   height="793.70667"
   viewBox="0 0 1122.52 793.70667"
   sodipodi:docname="MosesLogo.ai"
   xmlns:inkscape="http://www.inkscape.org/namespaces/inkscape"
   xmlns:sodipodi="http://sodipodi.sourceforge.net/DTD/sodipodi-0.dtd"
   xmlns="http://www.w3.org/2000/svg"
   xmlns:svg="http://www.w3.org/2000/svg">
  <defs
     id="defs6">
    <clipPath
       clipPathUnits="userSpaceOnUse"
       id="clipPath18">
      <path
         d="M 0,595.28 H 841.89 V 0 H 0 Z"
         id="path16" />
    </clipPath>
  </defs>
  <sodipodi:namedview
     id="namedview4"
     pagecolor="#ffffff"
     bordercolor="#000000"
     borderopacity="0.25"
     inkscape:showpageshadow="2"
     inkscape:pageopacity="0.0"
     inkscape:pagecheckerboard="0"
     inkscape:deskcolor="#d1d1d1" />
  <g
     id="g8"
     inkscape:groupmode="layer"
     inkscape:label="MosesLogo"
     transform="matrix(1.3333333,0,0,-1.3333333,0,793.70667)">
    <path
       d="M 0,0 H 841.89 V 595.281 H 0 Z"
       style="fill:#231f20;fill-opacity:1;fill-rule:nonzero;stroke:none"
       id="path10" />
    <g
       id="g12">
      <g
         id="g14"
         clip-path="url(#clipPath18)">
        <path
           d="M 841.89,0 H 0 v 595.28 h 841.89 z"
           style="fill:none;stroke:#231f20;stroke-width:1;stroke-linecap:butt;stroke-linejoin:miter;stroke-miterlimit:10;stroke-dasharray:none;stroke-opacity:1"
           id="path20" />
        <g
           id="g22"
           transform="translate(667.7676,259.8711)">
          <path
             d="m 0,0 v 0.17 c 0,4.226 -0.676,7.947 -2.031,10.989 -1.35,3.045 -3.379,5.752 -5.917,7.948 -2.703,2.201 -5.916,4.231 -9.639,5.751 -3.888,1.692 -8.283,3.043 -13.186,4.397 -4.062,1.014 -7.445,2.031 -10.148,2.877 -2.875,0.845 -4.904,1.691 -6.427,2.703 -1.693,0.847 -2.707,1.86 -3.382,3.045 -0.51,1.183 -0.845,2.536 -0.845,4.059 v 0.338 c 0,2.368 1.013,4.397 3.041,5.917 2.202,1.693 5.245,2.538 9.471,2.538 4.057,0 8.29,-0.845 12.346,-2.705 4.226,-1.691 8.452,-3.891 12.684,-6.934 l 11.16,16.064 c -5.075,3.891 -10.484,6.934 -16.401,9.132 -5.92,2.029 -12.515,3.215 -19.62,3.215 -4.902,0 -9.47,-0.677 -13.696,-2.201 -4.056,-1.352 -7.611,-3.212 -10.654,-5.917 -3.043,-2.538 -5.239,-5.579 -6.933,-9.134 -1.692,-3.549 -2.539,-7.607 -2.539,-12.005 v -0.169 c 0,-4.905 0.847,-8.792 2.37,-12.007 1.521,-3.38 3.552,-5.918 6.426,-8.117 2.704,-2.198 6.091,-4.057 9.977,-5.579 4.061,-1.354 8.457,-2.706 13.357,-3.892 4.062,-1.012 7.272,-2.026 9.813,-2.873 2.534,-1.015 4.563,-1.86 5.913,-2.874 1.525,-0.846 2.369,-1.861 2.879,-2.877 0.506,-1.183 0.844,-2.365 0.844,-3.718 v -0.34 c 0,-2.705 -1.182,-5.072 -3.723,-6.593 -2.364,-1.692 -5.913,-2.538 -10.311,-2.538 -5.415,0 -10.487,1.185 -15.22,3.213 -4.735,2.197 -9.131,5.073 -13.529,8.623 l -12.684,-15.051 c 5.749,-5.24 12.344,-9.13 19.447,-11.664 7.102,-2.537 14.204,-3.891 21.646,-3.891 5.241,0 9.977,0.676 14.374,2.028 4.228,1.353 7.949,3.384 11.161,5.92 3.21,2.534 5.58,5.58 7.269,9.3 C -0.845,-9.131 0,-4.904 0,0 m -88.95,-28.578 v 18.771 h -52.421 v 20.46 h 45.655 v 18.942 h -45.655 v 19.614 h 51.746 v 18.773 h -72.888 v -96.56 z m -309.631,0 V 45.66 c 47.685,-25.536 154.733,-69.842 160.311,-71.869 7.102,-2.537 14.374,-3.891 21.642,-3.891 5.415,0 10.15,0.676 14.38,2.028 4.397,1.353 8.114,3.384 11.326,5.92 3.046,2.534 5.582,5.58 7.272,9.3 1.693,3.721 2.54,7.948 2.54,12.852 v 0.17 c 0,4.226 -0.511,7.947 -1.865,10.989 -1.349,3.045 -3.38,5.752 -6.087,7.948 -2.534,2.201 -5.748,4.231 -9.637,5.751 -3.72,1.692 -8.116,3.043 -13.021,4.397 -4.058,1.014 -7.611,2.031 -10.314,2.877 -2.705,0.845 -4.904,1.691 -6.428,2.703 -1.52,0.847 -2.535,1.86 -3.213,3.045 -0.676,1.183 -0.846,2.536 -0.846,4.059 v 0.338 c 0,2.368 1.015,4.397 3.042,5.917 2.032,1.693 5.247,2.538 9.304,2.538 4.23,0 8.287,-0.845 12.512,-2.705 4.061,-1.691 8.287,-3.891 12.684,-6.934 l 10.993,16.064 c -4.904,3.891 -10.315,6.934 -16.406,9.132 -5.917,2.029 -12.343,3.215 -19.443,3.215 -5.075,0 -9.644,-0.677 -13.698,-2.201 -4.231,-1.352 -7.779,-3.212 -10.655,-5.917 -3.045,-2.538 -5.41,-5.579 -7.102,-9.134 -1.523,-3.549 -2.369,-7.607 -2.369,-12.005 v -0.169 c 0,-4.905 0.68,-8.792 2.2,-12.007 1.521,-3.38 3.72,-5.918 6.425,-8.117 2.876,-2.198 6.088,-4.057 10.147,-5.579 3.89,-1.354 8.287,-2.706 13.191,-3.892 4.057,-1.012 7.44,-2.026 9.976,-2.873 2.539,-1.015 4.396,-1.86 5.922,-2.874 1.35,-0.846 2.365,-1.861 2.872,-2.877 0.507,-1.183 0.678,-2.365 0.678,-3.718 v -0.34 c 0,-2.705 -1.185,-5.072 -3.55,-6.593 -2.54,-1.692 -5.922,-2.538 -10.32,-2.538 -5.578,0 -10.653,1.185 -15.219,3.213 l -170.12,76.268 -18.435,0.167 -27.055,-41.089 -25.366,40.753 h -22.998 v -96.56 h 20.969 v 62.737 l 26.888,-40.923 h 0.507 l 27.228,41.261 v -63.075 z"
             style="fill:#ffffff;fill-opacity:1;fill-rule:evenodd;stroke:none"
             id="path24" />
        </g>
        <g
           id="g26"
           transform="translate(362.7012,399.7222)">
          <path
             d="m 0,0 c -7.441,0 -14.204,-1.185 -20.462,-3.89 -6.427,-2.704 -11.837,-6.257 -16.403,-10.822 -4.566,-4.566 -8.115,-9.81 -10.824,-15.895 -2.536,-6.09 -3.889,-12.517 -3.889,-19.449 v -0.339 c 0,-6.934 1.353,-13.357 3.889,-19.445 2.539,-6.089 6.088,-11.33 10.656,-15.728 4.563,-4.567 9.974,-8.116 16.233,-10.652 6.257,-2.705 13.19,-4.058 20.631,-4.058 H 0 v 19.784 c -4.228,0 -8.118,0.674 -11.669,2.367 -3.551,1.522 -6.597,3.72 -9.301,6.594 -2.705,2.708 -4.735,5.92 -6.089,9.64 -1.353,3.723 -2.197,7.61 -2.197,11.837 v 0.169 c 0,4.227 0.844,8.118 2.197,11.839 1.354,3.549 3.384,6.763 5.92,9.637 2.537,2.706 5.581,4.906 9.132,6.427 3.55,1.522 7.611,2.368 11.838,2.368 l 0.169,0 z m 51.578,-50.056 v 0.169 c 0,6.932 -1.353,13.528 -3.891,19.617 C 45.15,-24.35 41.6,-19.108 37.034,-14.543 32.47,-10.147 27.057,-6.594 20.802,-3.89 14.541,-1.185 7.609,0 0.167,0 H 0 v -19.616 c 4.228,0 8.117,-0.846 11.668,-2.368 3.553,-1.691 6.766,-3.89 9.3,-6.596 2.708,-2.872 4.736,-6.086 6.089,-9.808 1.522,-3.55 2.199,-7.61 2.199,-11.668 v -0.339 c 0,-4.059 -0.677,-7.948 -2.199,-11.668 -1.353,-3.72 -3.381,-6.934 -5.919,-9.637 -2.536,-2.707 -5.58,-4.905 -9.133,-6.598 C 8.286,-79.82 4.397,-80.494 0.167,-80.494 H 0 v -19.784 c 7.44,0 14.375,1.353 20.631,4.058 6.257,2.536 11.668,6.085 16.403,10.652 4.566,4.734 8.116,9.979 10.653,16.066 2.538,5.919 3.891,12.514 3.891,19.446"
             style="fill:#47d6c4;fill-opacity:1;fill-rule:evenodd;stroke:none"
             id="path28" />
        </g>
      </g>
    </g>
  </g>
</svg>
