<?xml version="1.0" encoding="UTF-8"?>
<!DOCTYPE svg PUBLIC "-//W3C//DTD SVG 1.1//EN" "http://www.w3.org/Graphics/SVG/1.1/DTD/svg11.dtd">
<svg xmlns="http://www.w3.org/2000/svg" version="1.1" width="250px" height="86px" style="shape-rendering:geometricPrecision; text-rendering:geometricPrecision; image-rendering:optimizeQuality; fill-rule:evenodd; clip-rule:evenodd" xmlns:xlink="http://www.w3.org/1999/xlink">
<g><path style="opacity:0.913" fill="#46d5c3" d="M 88.5,-0.5 C 93.5,-0.5 98.5,-0.5 103.5,-0.5C 120.496,7.31982 125.663,19.9865 119,37.5C 111.303,48.7322 100.803,52.8988 87.5,50C 71.3218,43.1431 65.8218,31.3098 71,14.5C 74.8885,7.10298 80.7219,2.10298 88.5,-0.5 Z M 90.5,10.5 C 106.08,9.97284 111.913,17.3062 108,32.5C 103.874,38.9702 98.0407,41.1369 90.5,39C 81.878,34.1403 79.378,26.9736 83,17.5C 84.7424,14.2543 87.2424,11.921 90.5,10.5 Z"/></g>
<g><path style="opacity:0.905" fill="#24397d" d="M 147.5,85.5 C 142.167,85.5 136.833,85.5 131.5,85.5C 103.782,74.3133 76.4491,61.9799 49.5,48.5C 49.8158,60.636 49.4825,72.9693 48.5,85.5C 44.8333,85.5 41.1667,85.5 37.5,85.5C 37.6665,75.1613 37.4998,64.828 37,54.5C 33.0604,61.4363 28.727,68.1029 24,74.5C 19.4196,68.3402 15.0862,62.0069 11,55.5C 10.5002,65.4944 10.3335,75.4944 10.5,85.5C 6.83333,85.5 3.16667,85.5 -0.5,85.5C -0.5,68.8333 -0.5,52.1667 -0.5,35.5C 3.51383,35.3345 7.51383,35.5012 11.5,36C 16.0409,42.2455 20.2075,48.7455 24,55.5C 28.1667,49.1667 32.3333,42.8333 36.5,36.5C 40.4589,35.3401 44.4589,35.1735 48.5,36C 75.8333,48.3333 103.167,60.6667 130.5,73C 135.411,75.6108 140.411,75.9441 145.5,74C 146.554,72.6124 146.72,71.1124 146,69.5C 139.205,66.7494 132.372,63.9161 125.5,61C 118.634,53.0477 118.967,45.381 126.5,38C 137.539,32.7042 147.873,33.8708 157.5,41.5C 155.333,44.5 153.167,47.5 151,50.5C 146.23,46.355 140.73,44.855 134.5,46C 131.601,49.2266 132.268,51.56 136.5,53C 143.71,54.3582 150.21,57.1916 156,61.5C 161.297,72.5457 158.463,80.5457 147.5,85.5 Z"/></g>
<g><path style="opacity:0.897" fill="#253a7e" d="M 249.5,65.5 C 249.5,68.8333 249.5,72.1667 249.5,75.5C 247.083,80.2517 243.417,83.5851 238.5,85.5C 233.167,85.5 227.833,85.5 222.5,85.5C 217.875,83.8482 213.875,81.1816 210.5,77.5C 212.098,74.3986 214.265,71.7319 217,69.5C 222.727,74.7501 229.227,76.2501 236.5,74C 238.976,70.5836 237.976,68.2503 233.5,67C 226.706,65.9326 220.54,63.4326 215,59.5C 208.929,44.6524 213.929,36.319 230,34.5C 236.437,34.8122 242.27,36.8122 247.5,40.5C 248.521,41.0016 248.688,41.6683 248,42.5C 246,45.1667 244,47.8333 242,50.5C 237.23,46.355 231.73,44.855 225.5,46C 222.659,49.1588 223.326,51.4922 227.5,53C 232.637,54.2678 237.637,55.9344 242.5,58C 245.746,59.7424 248.079,62.2424 249.5,65.5 Z"/></g>
<g><path style="opacity:0.878" fill="#253a7e" d="M 204.5,85.5 C 191.833,85.5 179.167,85.5 166.5,85.5C 166.5,68.8333 166.5,52.1667 166.5,35.5C 179.167,35.5 191.833,35.5 204.5,35.5C 204.5,39.1667 204.5,42.8333 204.5,46.5C 195.833,46.5 187.167,46.5 178.5,46.5C 178.5,49.1667 178.5,51.8333 178.5,54.5C 186.167,54.5 193.833,54.5 201.5,54.5C 201.5,58.1667 201.5,61.8333 201.5,65.5C 193.833,65.5 186.167,65.5 178.5,65.5C 178.5,68.5 178.5,71.5 178.5,74.5C 187.167,74.5 195.833,74.5 204.5,74.5C 204.5,78.1667 204.5,81.8333 204.5,85.5 Z"/></g>
</svg>
