<?xml version="1.0" encoding="UTF-8"?>
<!DOCTYPE svg PUBLIC "-//W3C//DTD SVG 1.1//EN" "http://www.w3.org/Graphics/SVG/1.1/DTD/svg11.dtd">
<svg xmlns="http://www.w3.org/2000/svg" version="1.1" width="1200px" height="800px" style="shape-rendering:geometricPrecision; text-rendering:geometricPrecision; image-rendering:optimizeQuality; fill-rule:evenodd; clip-rule:evenodd" xmlns:xlink="http://www.w3.org/1999/xlink">
<g><path style="opacity:0.972" fill="#47d6c3" d="M 517.5,245.5 C 554.058,244.848 580.225,260.848 596,293.5C 606.722,325.058 600.889,353.058 578.5,377.5C 553.869,398.819 525.869,404.653 494.5,395C 456.623,379.1 439.957,350.6 444.5,309.5C 453.94,271.054 478.274,249.72 517.5,245.5 Z M 517.5,276.5 C 547.621,277.454 563.954,292.954 566.5,323C 562.593,355.922 544.26,370.588 511.5,367C 489.778,359.898 478.778,344.898 478.5,322C 480.005,296.75 493.005,281.583 517.5,276.5 Z"/></g>
<g><path style="opacity:0.971" fill="#fefffe" d="M 646.5,352.5 C 664.659,352.031 681.659,356.198 697.5,365C 700.909,367.034 703.909,369.534 706.5,372.5C 701.081,381.007 695.414,389.34 689.5,397.5C 676.602,387.213 661.935,382.38 645.5,383C 634.195,385.448 630.695,391.948 635,402.5C 636.41,403.787 637.91,404.954 639.5,406C 655.596,411.025 671.596,416.358 687.5,422C 707.52,432.213 715.02,448.379 710,470.5C 705.128,487.704 693.961,498.537 676.5,503C 657.016,507.058 638.016,505.391 619.5,498C 548.345,468.924 478.011,437.924 408.5,405C 399.096,400.549 389.93,395.716 381,390.5C 380.5,427.832 380.333,465.165 380.5,502.5C 369.5,502.5 358.5,502.5 347.5,502.5C 347.667,471.498 347.5,440.498 347,409.5C 334.333,428.833 321.667,448.167 309,467.5C 308.261,468.574 307.261,469.241 306,469.5C 292.181,449.874 278.848,429.874 266,409.5C 265.5,440.498 265.333,471.498 265.5,502.5C 254.5,502.5 243.5,502.5 232.5,502.5C 232.5,453.5 232.5,404.5 232.5,355.5C 244.851,355.168 257.185,355.501 269.5,356.5C 281.802,376.633 294.302,396.633 307,416.5C 320.127,395.743 333.627,375.243 347.5,355C 357.167,354.333 366.833,354.333 376.5,355C 465.382,394.941 554.382,434.608 643.5,474C 653.441,476.525 663.108,475.858 672.5,472C 680.767,461.727 678.767,454.06 666.5,449C 653.167,445 639.833,441 626.5,437C 604.099,427.365 595.599,410.532 601,386.5C 605.704,371.461 615.537,361.295 630.5,356C 635.905,354.504 641.239,353.337 646.5,352.5 Z"/></g>
<g><path style="opacity:0.967" fill="#fefffe" d="M 921.5,352.5 C 938.86,352.071 955.194,355.905 970.5,364C 974.619,366.29 978.286,369.124 981.5,372.5C 976.159,381.183 970.326,389.516 964,397.5C 950.113,385.868 934.28,381.368 916.5,384C 905.341,390.445 904.674,397.778 914.5,406C 928.003,410.793 941.669,415.127 955.5,419C 983.872,430.412 992.705,450.579 982,479.5C 972.364,495.247 958.198,503.747 939.5,505C 912.436,506.757 888.769,498.757 868.5,481C 875.009,472.995 881.675,465.161 888.5,457.5C 904.151,471.995 922.485,477.495 943.5,474C 951.23,471.041 954.063,465.541 952,457.5C 948.635,452.814 944.135,449.647 938.5,448C 926.121,444.489 913.788,440.822 901.5,437C 877.735,426.09 869.568,407.923 877,382.5C 885.879,363.645 900.712,353.645 921.5,352.5 Z"/></g>
<g><path style="opacity:0.984" fill="#fefffe" d="M 738.5,355.5 C 775.5,355.5 812.5,355.5 849.5,355.5C 849.5,365.167 849.5,374.833 849.5,384.5C 823.5,384.5 797.5,384.5 771.5,384.5C 771.5,394.167 771.5,403.833 771.5,413.5C 794.5,413.5 817.5,413.5 840.5,413.5C 840.5,423.5 840.5,433.5 840.5,443.5C 817.5,443.5 794.5,443.5 771.5,443.5C 771.5,453.5 771.5,463.5 771.5,473.5C 797.833,473.5 824.167,473.5 850.5,473.5C 850.5,483.167 850.5,492.833 850.5,502.5C 813.167,502.5 775.833,502.5 738.5,502.5C 738.5,453.5 738.5,404.5 738.5,355.5 Z"/></g>
</svg>
